<?xml version="1.0" encoding="UTF-8"?>
<!DOCTYPE svg PUBLIC "-//W3C//DTD SVG 1.1//EN" "http://www.w3.org/Graphics/SVG/1.1/DTD/svg11.dtd">
<svg xmlns="http://www.w3.org/2000/svg" version="1.1" width="62px" height="64px" style="shape-rendering:geometricPrecision; text-rendering:geometricPrecision; image-rendering:optimizeQuality; fill-rule:evenodd; clip-rule:evenodd" xmlns:xlink="http://www.w3.org/1999/xlink">
<g><path style="opacity:1" fill="#fefefd" d="M -0.5,-0.5 C 20.1667,-0.5 40.8333,-0.5 61.5,-0.5C 61.5,20.8333 61.5,42.1667 61.5,63.5C 40.8333,63.5 20.1667,63.5 -0.5,63.5C -0.5,42.1667 -0.5,20.8333 -0.5,-0.5 Z"/></g>
<g><path style="opacity:1" fill="#f7c59d" d="M 30.5,7.5 C 31.1476,4.67719 32.8142,3.17719 35.5,3C 33.9625,4.70733 32.2959,6.20733 30.5,7.5 Z"/></g>
<g><path style="opacity:1" fill="#f7b482" d="M 30.5,7.5 C 29.2134,10.4061 28.2134,13.4061 27.5,16.5C 26.8333,16.5 26.5,16.1667 26.5,15.5C 26.7936,12.2459 28.127,9.57919 30.5,7.5 Z"/></g>
<g><path style="opacity:1" fill="#fbc7a1" d="M 26.5,15.5 C 26.5,16.1667 26.8333,16.5 27.5,16.5C 27.5,20.8333 27.5,25.1667 27.5,29.5C 27.1667,29.5 26.8333,29.5 26.5,29.5C 25.1667,24.8333 25.1667,20.1667 26.5,15.5 Z"/></g>
<g><path style="opacity:1" fill="#f7bf94" d="M 42.5,47.5 C 41.7784,47.0825 41.2784,46.4158 41,45.5C 40.3333,41.1667 40.3333,36.8333 41,32.5C 41.6728,29.1917 43.5061,27.3584 46.5,27C 44.3834,28.7309 42.8834,30.8976 42,33.5C 41.4361,38.1935 41.6027,42.8602 42.5,47.5 Z"/></g>
<g><path style="opacity:1" fill="#f9a76d" d="M 26.5,29.5 C 26.8333,29.5 27.1667,29.5 27.5,29.5C 28.941,35.7087 30.941,41.7087 33.5,47.5C 29.5363,42.2229 27.2029,36.2229 26.5,29.5 Z"/></g>
<g><path style="opacity:1" fill="#f6bc8f" d="M 42.5,47.5 C 45.139,50.2985 45.9723,53.6319 45,57.5C 44.4424,54.0662 43.609,50.7328 42.5,47.5 Z"/></g>
<g><path style="opacity:1" fill="#f8c49b" d="M 16.5,25.5 C 17.0431,25.56 17.3764,25.8933 17.5,26.5C 13.1223,32.2409 12.2889,38.5742 15,45.5C 17.8046,49.091 18.8046,53.091 18,57.5C 14.8266,50.3106 12.6599,42.8106 11.5,35C 12.2655,31.2999 13.9322,28.1332 16.5,25.5 Z"/></g>
<g><path style="opacity:1" fill="#f6b583" d="M 33.5,47.5 C 36.6409,52.2724 35.6409,56.1057 30.5,59C 28.8333,59.6667 27.1667,59.6667 25.5,59C 32.6412,58.3503 35.3079,54.517 33.5,47.5 Z"/></g>
</svg>
